<svg xmlns="http://www.w3.org/2000/svg" xmlns:xlink="http://www.w3.org/1999/xlink" viewBox="0 0 595.27559 595.27559"><defs><linearGradient id="a" x1="212.59544" y1="510.23685" x2="212.59544" y2="141.73239" gradientTransform="translate(-113.38913 538.58014) rotate(-90.00001)" gradientUnits="userSpaceOnUse"><stop offset="0" stop-color="#bfbfbf"/><stop offset="0.5" stop-color="#fff"/></linearGradient><linearGradient id="b" x1="382.67419" y1="510.23688" x2="382.67419" y2="368.51117" gradientUnits="userSpaceOnUse"><stop offset="0" stop-color="#bfbfbf"/><stop offset="0.75" stop-color="#fff"/><stop offset="1" stop-color="#bfbfbf"/></linearGradient><linearGradient id="c" x1="382.67408" y1="283.47128" x2="382.67408" y2="141.73219" gradientTransform="translate(170.07274 595.27605) rotate(-90.00006)" gradientUnits="userSpaceOnUse"><stop offset="0" stop-color="#e6e6e6"/><stop offset="0.41579" stop-color="#fff"/></linearGradient></defs><title>Logo GM</title><path d="M28.34321,283.46494H396.84768a0,0,0,0,1,0,0V368.5043a0,0,0,0,1,0,0H113.3825A85.03929,85.03929,0,0,1,28.34321,283.465v-.00007a0,0,0,0,1,0,0Z" transform="translate(538.58011 113.38925) rotate(90.00001)" style="fill:url(#a)"/><rect x="340.15453" y="368.51117" width="85.03931" height="141.72571" style="fill:url(#b)"/><path d="M396.84383,170.082h56.69982a0,0,0,0,1,0,0v85.0394a0,0,0,0,1,0,0H311.80456a0,0,0,0,1,0,0v-.00013A85.03927,85.03927,0,0,1,396.84383,170.082Z" transform="translate(595.27622 -170.07217) rotate(90.00006)" style="fill:url(#c)"/><path d="M566.9436,226.7485a28.35313,28.35313,0,0,0,28.351-28.36553l-.019-56.29285V113.38583A113.38582,113.38582,0,0,0,481.88981,0h-368.504A113.38582,113.38582,0,0,0,0,113.38583V581.10235a14.17323,14.17323,0,0,0,14.17323,14.17322H481.88981A113.38582,113.38582,0,0,0,595.27563,481.88975V368.32269h-.00317v-42.332a42.51966,42.51966,0,0,0-42.51965-42.51965H340.1543v85.03937H510.23608v99.206a42.51969,42.51969,0,0,1-42.51968,42.51969H99.21253a14.17323,14.17323,0,0,1-14.17322-14.17323V127.55905A42.51968,42.51968,0,0,1,127.559,85.03937h340.2305a42.51968,42.51968,0,0,1,42.51967,42.54507l-.03414,96.35893a2.83465,2.83465,0,0,0,2.88464,2.83466S513.62688,226.75469,566.9436,226.7485Z" style="fill:#fff"/></svg>